inDegrees=yes
name=ik_S47_A12_T02
DataType=double
version=3
OpenSimVersion=4.3-2021-08-27-4bc7ad9
endheader
time	pelvis_tilt	pelvis_list	pelvis_rotation	pelvis_tx	pelvis_ty	pelvis_tz	hip_flexion_r	hip_adduction_r	hip_rotation_r	knee_angle_r	knee_angle_r_beta	ankle_angle_r	subtalar_angle_r	mtp_angle_r	hip_flexion_l	hip_adduction_l	hip_rotation_l	knee_angle_l	knee_angle_l_beta	ankle_angle_l	subtalar_angle_l	mtp_angle_l	lumbar_extension	lumbar_bending	lumbar_rotation	arm_flex_r	arm_add_r	arm_rot_r	elbow_flex_r	pro_sup_r	wrist_flex_r	wrist_dev_r	arm_flex_l	arm_add_l	arm_rot_l	elbow_flex_l	pro_sup_l	wrist_flex_l	wrist_dev_l
0	0	0	0	0	0.9399999999999999	0	0	0	0	0	0	0	0	0	0	0	0	0	0	0	0	0	0	0	0	0	0	0	0	89.99999999963507	0	0	0	0	0	0	89.99999999869995	0	0
0.02	-1.330539892553625	0.5663119301755412	33.68380186027996	0	0.9399999999999999	0	1.510358975058551	-0.7113818783324836	-0.5070930262694987	2.352775132880869	0.04106367262781827	0	0	0	1.510358975058551	-0.7113818783324836	-0.5070930262694987	2.352775132880869	0.04106367262781827	0	0	0	-0.6974908642571896	1.776378808595279	15.52075597572603	11.40373945197809	-8.647134497164666	-2.80683839440017	12.3137382898744	124.574887413088	0	0	7.229188686500156	-2.005818688937778	-0.7244610514225163	5.434768642634622	109.2847694510092	0	0
0.04	-1.307984762524279	0.5896441461276299	33.70315203951288	0	0.9399999999999999	0	1.516157203670855	-0.7144052323376738	-0.5090514948206529	2.361752183661719	0.04122035172106282	0	0	0	1.516157203670855	-0.7144052323376738	-0.5090514948206529	2.361752183661719	0.04122035172106282	0	0	0	-0.6657739585426445	1.78324419175513	15.5194744826643	11.49176753553399	-8.659548326813422	-2.841943490331939	12.30276101536692	124.5122901454611	0	0	7.197500391849956	-2.013071958791959	-0.787298155842684	5.431035493042839	109.2808187488532	0	0
0.06	-1.299712504274125	0.6132656199555344	33.71707927809378	0	0.9399999999999999	0	1.533028389383199	-0.7232607631218632	-0.5147552660084438	2.387918121018147	0.04167703347980307	0	0	0	1.533028389383199	-0.7232607631218632	-0.5147552660084438	2.387918121018147	0.04167703347980307	0	0	0	-0.6455522709429425	1.798363254996047	15.48893316277532	11.53444253938833	-8.682107967183812	-2.788554857146253	12.26386417526176	124.3953527481127	0	0	7.167758383853901	-1.999723123108469	-1.00238033841302	5.41804388453375	109.4646891799698	0	0
0.08	-1.294942811586777	0.6162474328462884	33.74969355668627	0	0.9399999999999999	0	1.539031951853874	-0.7264011756319997	-0.5167843163512781	2.397206482208578	0.04183914596469055	0	0	0	1.539031951853874	-0.7264011756319997	-0.5167843163512781	2.397206482208578	0.04183914596469055	0	0	0	-0.6399597214709392	1.798139910016014	15.49087501589365	11.58379911547006	-8.69635857689881	-2.807702247600728	12.26053188952243	124.358117167848	0	0	7.161514870446067	-1.998354696983717	-1.090518806230297	5.42164068963461	109.4591901397998	0	0
0.1	-1.27549648774976	0.622912847942223	34.19755043842155	0	0.9399999999999999	0	3.770865459617541	-1.78059520239099	-1.321322861038341	4.853109344330278	0.08470273701786656	0	0	0	3.770865459617541	-1.78059520239099	-1.321322861038341	4.853109344330278	0.08470273701786656	0	0	0	-0.6374461481180842	1.813160975371494	15.02042290895917	11.64946711294182	-8.687036591672522	-2.728173986602859	12.20927282509983	124.2445173377622	0	0	7.150148546379008	-2.000294384822726	-1.110485102313011	5.45787547610436	109.4746330364752	0	0
0.12	-1.261624380249367	0.6306803333870921	34.23037064282394	0	0.9399999999999999	0	3.778962251312315	-1.784707129039694	-1.324078238500451	4.864408143002295	0.08489993825621321	0	0	0	3.778962251312315	-1.784707129039694	-1.324078238500451	4.864408143002295	0.08489993825621321	0	0	0	-0.6215310429339593	1.811766024706865	15.01032103504565	11.65935953371323	-8.695086035474541	-2.73410545841656	12.19899559584204	124.2090948862784	0	0	7.137118708024691	-2.002220312996395	-1.241252008614216	5.422664026941103	109.3354362015074	0	0
0.14	-1.245999282037046	0.6436049201073156	34.37090032780691	0	0.9399999999999999	0	4.615409786196635	-2.153666455290119	-1.612056986987384	5.771343974970019	0.100728954628364	0	0	0	4.615409786196635	-2.153666455290119	-1.612056986987384	5.771343974970019	0.100728954628364	0	0	0	-0.6040302768126157	1.80551794982639	14.87703331432568	11.67380549090517	-8.6883609440656	-2.73358433487226	12.21091470810629	124.1251207560642	0	0	7.103386077286961	-2.016490364473749	-1.33295854440862	5.418464937191976	109.2534112351774	0	0
0.16	-1.237895030542851	0.6495907417250818	34.45760941642379	0	0.9399999999999999	0	4.949457640328794	-2.286206656647647	-1.72992462769324	6.014970049444982	0.1049810317716611	0	0	0	4.949457640328794	-2.286206656647647	-1.72992462769324	6.014970049444982	0.1049810317716611	0	0	0	-0.5947191147830878	1.801230876447999	14.81066183626333	11.69406212604891	-8.692494855474113	-2.754676103025243	12.18679670527405	124.065068899587	0	0	7.074122327530901	-2.017798621780684	-1.398199320053719	5.409905362039542	109.2568611812809	0	0
0.18	-1.235331025404052	0.6663628375086235	34.68684134596938	0	0.9399999999999999	0	6.188387092972392	-2.807993599705707	-2.157647721737318	7.209241788545579	0.1258250057824852	0	0	0	6.188387092972392	-2.807993599705707	-2.157647721737318	7.209241788545579	0.1258250057824852	0	0	0	-0.5797364475617619	1.786640816406197	14.60564538286526	11.67513549905823	-8.699635239447787	-2.781129967262043	12.18802299597245	124.0132418263567	0	0	7.040002528565547	-2.019306242494028	-1.427127417036471	5.390490468082017	109.2392246145152	0	0
0.2	-1.223621890423938	0.6726715889236913	34.75074907978247	0	0.9399999999999999	0	6.467174719680476	-2.910889978019034	-2.252506202789436	7.421541892541235	0.1295303415995357	0	0	0	6.467174719680476	-2.910889978019034	-2.252506202789436	7.421541892541235	0.1295303415995357	0	0	0	-0.5667442024655218	1.780796303652594	14.55028340583574	11.66977180545249	-8.701445549381752	-2.754646514043281	12.21240359377187	123.9213931174597	0	0	6.997696481750317	-2.024032833049791	-1.469216024653392	5.315995171104862	109.2082037692253	0	0
0.22	-1.203734263111975	0.6993905305637027	34.84232055513861	0	0.9399999999999999	0	6.793390468707816	-3.034693842423565	-2.362881837797884	7.691354332526068	0.1342394570401107	0	0	0	6.793390468707816	-3.034693842423565	-2.362881837797884	7.691354332526068	0.1342394570401107	0	0	0	-0.5357028847535347	1.787077770545201	14.48907938453797	11.67049534872396	-8.704111513743618	-2.739100070064789	12.10881976139246	123.8940019399538	0	0	6.892935043773132	-2.025482856192975	-1.511892523049348	5.361425956142466	109.2849519908332	0	0
0.24	-1.194925318179573	0.7028583639120987	35.01126759693599	0	0.9399999999999999	0	7.79787961689477	-3.416343893415019	-2.696737040239721	8.608788752330035	0.1502517083368138	0	0	0	7.79787961689477	-3.416343893415019	-2.696737040239721	8.608788752330035	0.1502517083368138	0	0	0	-0.5279369657251242	1.771293080403568	14.32444782867415	11.67678193898822	-8.693553950130166	-2.746534364953513	12.10945694920264	123.8542848744869	0	0	6.845092262853511	-2.03258014169026	-1.582918371939449	5.337053389909601	109.263848509736	0	0
0.26	-1.204285258108436	0.6971441385273588	35.09114297731067	0	0.9399999999999999	0	8.278781270638149	-3.59880944925993	-2.854013574678758	9.082782829929856	0.1585244656258842	0	0	0	8.278781270638149	-3.59880944925993	-2.854013574678758	9.082782829929856	0.1585244656258842	0	0	0	-0.5346056639567381	1.76275887836819	14.25134117094601	11.70460885788429	-8.713536282811628	-2.73528212137749	12.05899173075864	123.7425262173294	0	0	6.833549931892118	-2.021726613785872	-1.656241745257397	5.313603379683089	109.2448064218676	0	0
0.28	-1.21829504947019	0.6936532152955657	35.17341916655918	0	0.9399999999999999	0	8.739838207859037	-3.772941402511915	-3.003945264434488	9.542196655179506	0.1665427495056724	0	0	0	8.739838207859037	-3.772941402511915	-3.003945264434488	9.542196655179506	0.1665427495056724	0	0	0	-0.5433509901335385	1.758076338443376	14.18826540843752	11.72546192804009	-8.741089181092683	-2.744164436600265	12.03658637781387	123.7052460354461	0	0	6.812828241986902	-2.001832848930534	-1.735115195602081	5.309040869777365	109.273807535054	0	0
